# xmcd
#
# Track frame offsets:
#	150
#	15855
#	28985
#	45823
#	61930
#	79854
#	97491
#	116680
#	134576
#	152401
#	176731
#	192615
#	210702
#	232041
#
# Disc length: 3323 seconds
#
# Revision: 0
# Processed by: cddbd v1.5.2PL0 Copyright (c) Steve Scherf et al.
# Submitted via: audiograbber 1.83.01
#
DISCID=c00cf90e
DTITLE=JonesTM - HC200813
DYEAR=2008
DGENRE=Country
TTITLE0=Chuck Wicks - All I Ever Wanted
TTITLE1=Shooter Jennings - This Ol Wheel [Radio Remix]
TTITLE2=Eric Church - His Kind Of Money (My Kind Of Love)
TTITLE3=John Michael Montgomery - Mad Cowboy Disease [Radio Edit]
TTITLE4=Ne-Yo - Closer
TTITLE5=Keyshia Cole - Heaven Sent [Main]
TTITLE6=Janet Jackson - Can't B Good [Main]
TTITLE7=Ledisi - In The Morning [Live Remix (W/O Crowd)]
TTITLE8=Ledisi - In The Morning [Live Remix (With Crowd)]
TTITLE9=Ledisi - In The Morning [Live Remix (Extended)]
TTITLE10=David Wells Feat. Matt Marshak - Friday Afternoon [Radio Mix]
TTITLE11=Al Green Feat. Corinne Bailey Rae - Take Your Time
TTITLE12=Chaka Khan - ne For All Time [Album Version]
TTITLE13=Donn Bynum - Midnight In Rio [Album Version]
EXTD=
EXTT0=
EXTT1=
EXTT2=
EXTT3=
EXTT4=
EXTT5=
EXTT6=
EXTT7=
EXTT8=
EXTT9=
EXTT10=
EXTT11=
EXTT12=
EXTT13=
PLAYORDER=
